<svg width="15" height="16" viewBox="0 0 15 16" fill="none" xmlns="http://www.w3.org/2000/svg">
<path d="M9.375 7.80768C9.375 8.30496 9.17746 8.78187 8.82583 9.1335C8.47419 9.48513 7.99728 9.68268 7.5 9.68268C7.00272 9.68268 6.52581 9.48513 6.17417 9.1335C5.82254 8.78187 5.625 8.30496 5.625 7.80768C5.625 7.3104 5.82254 6.83348 6.17417 6.48185C6.52581 6.13022 7.00272 5.93268 7.5 5.93268C7.99728 5.93268 8.47419 6.13022 8.82583 6.48185C9.17746 6.83348 9.375 7.3104 9.375 7.80768Z" stroke="white" stroke-width="1.5" stroke-linecap="round" stroke-linejoin="round"/>
<path d="M1.25 7.80768C2.25 5.24705 4.585 3.43268 7.5 3.43268C10.415 3.43268 12.75 5.24705 13.75 7.80768C12.75 10.3683 10.415 12.1827 7.5 12.1827C4.585 12.1827 2.25 10.3683 1.25 7.80768Z" stroke="white" stroke-width="1.5" stroke-linecap="round" stroke-linejoin="round"/>
</svg>
