<svg xmlns="http://www.w3.org/2000/svg" width="20" height="20" viewBox="0 0 20 20" fill="none">
<path d="M12.4996 16.5667C12.533 16.8167 12.4496 17.0833 12.258 17.2583C12.1809 17.3356 12.0893 17.3969 11.9885 17.4387C11.8877 17.4805 11.7796 17.502 11.6705 17.502C11.5613 17.502 11.4532 17.4805 11.3524 17.4387C11.2516 17.3969 11.16 17.3356 11.083 17.2583L7.74129 13.9167C7.65045 13.8278 7.58138 13.7191 7.53946 13.5991C7.49754 13.4792 7.48391 13.3511 7.49962 13.225V8.95833L3.50795 3.85C3.37263 3.67628 3.31157 3.45605 3.33811 3.23744C3.36466 3.01883 3.47665 2.81962 3.64962 2.68333C3.80795 2.56667 3.98295 2.5 4.16629 2.5H15.833C16.0163 2.5 16.1913 2.56667 16.3496 2.68333C16.5226 2.81962 16.6346 3.01883 16.6611 3.23744C16.6877 3.45605 16.6266 3.67628 16.4913 3.85L12.4996 8.95833V16.5667ZM5.86629 4.16667L9.16629 8.38333V12.9833L10.833 14.65V8.375L14.133 4.16667H5.86629Z" fill="white"/>
</svg>