<svg width="4624" height="1000" viewBox="0 0 4624 1000" fill="none" xmlns="http://www.w3.org/2000/svg">
<path d="M1498.8 206V312.715H1178.7V448.243H1445.45C1513.38 451.445 1548.95 486.661 1552.15 553.891V685.684C1548.95 753.982 1513.03 790.087 1444.38 794H1072V687.285H1445.45V554.958H1178.7C1110.41 549.978 1074.85 514.229 1072 447.71V312.181C1074.85 244.595 1110.41 209.201 1178.7 206H1498.8Z" fill="#801414"/>
<path d="M2119.71 527.212V312.715H1852.96V527.212H2119.71ZM1852.96 633.927V794H1746.26V206H2118.64C2187.29 209.201 2223.21 245.129 2226.41 313.782V526.145C2223.21 593.731 2187.64 629.659 2119.71 633.927L2227.48 794H2110.11L2002.34 633.927H1852.96Z" fill="#801414"/>
<path d="M2420.52 208.134H2527.22V794H2420.52V208.134Z" fill="#801414"/>
<path d="M2721.33 207.067H2828.03V473.855H3094.78V207.067H3201.48V474.922C3198.99 542.152 3163.25 577.368 3094.25 580.57H3014.75V794H2908.59V580.57H2829.1C2759.39 577.368 2723.46 541.975 2721.33 474.388V207.067Z" fill="#801414"/>
<path d="M3769.04 687.285V312.715H3502.29V687.285H3769.04ZM3395.59 312.181C3398.43 243.884 3434 208.49 3502.29 206H3768.51C3836.08 208.49 3871.83 243.884 3875.74 312.181V687.285C3873.96 756.294 3838.39 791.866 3769.04 794H3502.29C3432.58 791.866 3397.01 756.294 3395.59 687.285V312.181Z" fill="#801414"/>
<path d="M4069.85 313.249C4072.34 244.24 4107.91 208.49 4176.55 206H4444.37C4513.01 208.49 4548.22 244.24 4550 313.249V366.073H4443.3V312.715H4176.55V687.285H4443.3V554.958H4310.99V448.243H4550V687.285C4546.44 754.515 4511.23 790.087 4444.37 794H4176.55C4108.62 790.443 4073.05 755.049 4069.85 687.819V313.249Z" fill="#801414"/>
<path d="M975.559 616.44C911.251 856.44 664.56 998.867 424.56 934.559C184.56 870.251 42.1334 623.56 106.441 383.56C170.749 143.56 417.439 1.13338 657.44 65.4412C897.44 129.749 1039.87 376.439 975.559 616.44Z" fill="#801414"/>
<path fill-rule="evenodd" clip-rule="evenodd" d="M617.5 532.856C642.58 500.589 660.088 460.826 670.022 413.566L744.1 572.377C696.837 661.054 622.442 748.17 520.917 833.725L399.744 783.197C454.595 745.542 512.524 684.674 573.532 600.593L457.698 576.698C428.674 619.098 388.632 659.816 337.573 698.851L218.554 651.254C267.314 618.539 307.355 581.758 338.677 540.909C276.309 518.576 235.978 487.799 217.684 448.58C199.821 409.16 198.721 371.366 214.385 335.198C230.48 298.829 255.982 272.503 290.891 256.219C326.232 239.734 366.051 238.477 410.35 252.447C454.448 265.986 489.794 296.202 516.39 343.093C542.986 389.984 538.509 445.073 502.959 508.358L617.5 532.856ZM343.392 437.957C352.238 456.92 366.126 470.383 385.058 478.344C405.95 445.51 418.18 414.354 421.747 384.878C425.746 355.201 419.443 336.627 402.838 329.154C386.665 321.48 370.502 332.955 354.351 363.578C337.999 393.77 334.346 418.563 343.392 437.957Z" fill="white"/>
<path d="M576.376 335.503L699.947 277.863L878.083 659.755L754.512 717.395L576.376 335.503ZM511.6 196.634L635.17 138.993L683.753 243.146L560.182 300.786L511.6 196.634Z" fill="white"/>
</svg>
