<svg xmlns="http://www.w3.org/2000/svg" width="36" height="35" viewBox="0 0 36 35" fill="none">
<path d="M21.0521 16.0417H15.2188V18.9583H21.0521V16.0417Z" fill="#801414"/>
<path fill-rule="evenodd" clip-rule="evenodd" d="M10.8438 7.29167V5.83333C10.8438 5.05979 11.151 4.31792 11.698 3.77094C12.245 3.22396 12.9869 2.91667 13.7604 2.91667H22.5104C23.284 2.91667 24.0258 3.22396 24.5728 3.77094C25.1198 4.31792 25.4271 5.05979 25.4271 5.83333V7.29167H29.8021C30.9624 7.29167 32.0752 7.7526 32.8957 8.57308C33.7161 9.39355 34.1771 10.5063 34.1771 11.6667V26.25C34.1771 27.4103 33.7161 28.5231 32.8957 29.3436C32.0752 30.1641 30.9624 30.625 29.8021 30.625H6.46875C5.30843 30.625 4.19563 30.1641 3.37516 29.3436C2.55469 28.5231 2.09375 27.4103 2.09375 26.25V11.6667C2.09375 10.5063 2.55469 9.39355 3.37516 8.57308C4.19563 7.7526 5.30843 7.29167 6.46875 7.29167H10.8438ZM13.7604 5.83333H22.5104V7.29167H13.7604V5.83333ZM6.46875 10.2083C6.08198 10.2083 5.71104 10.362 5.43755 10.6355C5.16406 10.909 5.01042 11.2799 5.01042 11.6667V20.4167H31.2604V11.6667C31.2604 11.2799 31.1068 10.909 30.8333 10.6355C30.5598 10.362 30.1889 10.2083 29.8021 10.2083H6.46875ZM5.01042 26.25V23.3333H31.2604V26.25C31.2604 26.6368 31.1068 27.0077 30.8333 27.2812C30.5598 27.5547 30.1889 27.7083 29.8021 27.7083H6.46875C6.08198 27.7083 5.71104 27.5547 5.43755 27.2812C5.16406 27.0077 5.01042 26.6368 5.01042 26.25Z" fill="#801414"/>
</svg>
