<svg xmlns="http://www.w3.org/2000/svg" width="36" height="36" viewBox="0 0 36 36" fill="none">
<path d="M29.4844 17.7867V10.4951H32.401V19.2451H29.4844M29.4844 25.0784H32.401V22.1617H29.4844M14.901 19.2451C18.7948 19.2451 26.5677 21.1992 26.5677 25.0784V29.4534H3.23438V25.0784C3.23438 21.1992 11.0073 19.2451 14.901 19.2451ZM14.901 6.12008C16.4481 6.12008 17.9319 6.73466 19.0258 7.82862C20.1198 8.92258 20.7344 10.4063 20.7344 11.9534C20.7344 13.5005 20.1198 14.9842 19.0258 16.0782C17.9319 17.1722 16.4481 17.7867 14.901 17.7867C13.3539 17.7867 11.8702 17.1722 10.7763 16.0782C9.68229 14.9842 9.06771 13.5005 9.06771 11.9534C9.06771 10.4063 9.68229 8.92258 10.7763 7.82862C11.8702 6.73466 13.3539 6.12008 14.901 6.12008ZM14.901 22.0159C10.5698 22.0159 6.00521 24.1451 6.00521 25.0784V26.6826H23.7969V25.0784C23.7969 24.1451 19.2323 22.0159 14.901 22.0159ZM14.901 8.89091C14.0888 8.89091 13.3099 9.21356 12.7355 9.78789C12.1612 10.3622 11.8385 11.1412 11.8385 11.9534C11.8385 12.7656 12.1612 13.5446 12.7355 14.1189C13.3099 14.6933 14.0888 15.0159 14.901 15.0159C15.7133 15.0159 16.4922 14.6933 17.0666 14.1189C17.6409 13.5446 17.9635 12.7656 17.9635 11.9534C17.9635 11.1412 17.6409 10.3622 17.0666 9.78789C16.4922 9.21356 15.7133 8.89091 14.901 8.89091Z" fill="#801414"/>
</svg>