<svg xmlns="http://www.w3.org/2000/svg" width="25" height="24" viewBox="0 0 25 24" fill="none">
  <path d="M20.5 12V7H22.5V13H20.5M20.5 17H22.5V15H20.5M10.5 13C13.17 13 18.5 14.34 18.5 17V20H2.5V17C2.5 14.34 7.83 13 10.5 13ZM10.5 4C11.5609 4 12.5783 4.42143 13.3284 5.17157C14.0786 5.92172 14.5 6.93913 14.5 8C14.5 9.06087 14.0786 10.0783 13.3284 10.8284C12.5783 11.5786 11.5609 12 10.5 12C9.43913 12 8.42172 11.5786 7.67157 10.8284C6.92143 10.0783 6.5 9.06087 6.5 8C6.5 6.93913 6.92143 5.92172 7.67157 5.17157C8.42172 4.42143 9.43913 4 10.5 4ZM10.5 14.9C7.53 14.9 4.4 16.36 4.4 17V18.1H16.6V17C16.6 16.36 13.47 14.9 10.5 14.9ZM10.5 5.9C9.94305 5.9 9.4089 6.12125 9.01508 6.51508C8.62125 6.9089 8.4 7.44305 8.4 8C8.4 8.55695 8.62125 9.0911 9.01508 9.48492C9.4089 9.87875 9.94305 10.1 10.5 10.1C11.057 10.1 11.5911 9.87875 11.9849 9.48492C12.3788 9.0911 12.6 8.55695 12.6 8C12.6 7.44305 12.3788 6.9089 11.9849 6.51508C11.5911 6.12125 11.057 5.9 10.5 5.9Z" fill="currentColor"/>
</svg>