<svg xmlns="http://www.w3.org/2000/svg" width="35" height="35" viewBox="0 0 35 35" fill="none">
<path d="M20.4168 16.0417H14.5835V18.9583H20.4168V16.0417Z" fill="#801414"/>
<path fill-rule="evenodd" clip-rule="evenodd" d="M10.2085 7.29166V5.83333C10.2085 5.05978 10.5158 4.31792 11.0628 3.77094C11.6097 3.22395 12.3516 2.91666 13.1252 2.91666H21.8752C22.6487 2.91666 23.3906 3.22395 23.9376 3.77094C24.4845 4.31792 24.7918 5.05978 24.7918 5.83333V7.29166H29.1668C30.3272 7.29166 31.4399 7.7526 32.2604 8.57307C33.0809 9.39354 33.5418 10.5063 33.5418 11.6667V26.25C33.5418 27.4103 33.0809 28.5231 32.2604 29.3436C31.4399 30.1641 30.3272 30.625 29.1668 30.625H5.8335C4.67317 30.625 3.56038 30.1641 2.7399 29.3436C1.91943 28.5231 1.4585 27.4103 1.4585 26.25V11.6667C1.4585 10.5063 1.91943 9.39354 2.7399 8.57307C3.56038 7.7526 4.67317 7.29166 5.8335 7.29166H10.2085ZM13.1252 5.83333H21.8752V7.29166H13.1252V5.83333ZM5.8335 10.2083C5.44672 10.2083 5.07579 10.362 4.8023 10.6355C4.52881 10.909 4.37516 11.2799 4.37516 11.6667V20.4167H30.6252V11.6667C30.6252 11.2799 30.4715 10.909 30.198 10.6355C29.9245 10.362 29.5536 10.2083 29.1668 10.2083H5.8335ZM4.37516 26.25V23.3333H30.6252V26.25C30.6252 26.6368 30.4715 27.0077 30.198 27.2812C29.9245 27.5547 29.5536 27.7083 29.1668 27.7083H5.8335C5.44672 27.7083 5.07579 27.5547 4.8023 27.2812C4.52881 27.0077 4.37516 26.6368 4.37516 26.25Z" fill="#801414"/>
</svg>