<svg xmlns="http://www.w3.org/2000/svg" width="35" height="35" viewBox="0 0 35 35" fill="none">
<path d="M5.8335 26.25C5.8335 24.7029 6.44808 23.2192 7.54204 22.1252C8.636 21.0313 10.1197 20.4167 11.6668 20.4167H23.3335C24.8806 20.4167 26.3643 21.0313 27.4583 22.1252C28.5522 23.2192 29.1668 24.7029 29.1668 26.25C29.1668 27.0236 28.8595 27.7654 28.3126 28.3124C27.7656 28.8594 27.0237 29.1667 26.2502 29.1667H8.75016C7.97661 29.1667 7.23475 28.8594 6.68777 28.3124C6.14079 27.7654 5.8335 27.0236 5.8335 26.25Z" stroke="#801414" stroke-width="2" stroke-linejoin="round"/>
<path d="M17.5002 14.5833C19.9165 14.5833 21.8752 12.6246 21.8752 10.2083C21.8752 7.79209 19.9165 5.83334 17.5002 5.83334C15.084 5.83334 13.1252 7.79209 13.1252 10.2083C13.1252 12.6246 15.084 14.5833 17.5002 14.5833Z" stroke="#801414" stroke-width="2"/>
</svg>