<svg xmlns="http://www.w3.org/2000/svg" width="36" height="35" viewBox="0 0 36 35" fill="none">
<path d="M29.4242 18.9583V8.38396C29.4242 8.26885 29.4016 8.15484 29.3576 8.04849C29.3135 7.94213 29.2489 7.84552 29.1675 7.76417L24.5767 3.17333C24.4127 3.00919 24.1903 2.91687 23.9583 2.91667H6.96582C6.73376 2.91667 6.5112 3.00886 6.3471 3.17295C6.18301 3.33704 6.09082 3.5596 6.09082 3.79167V31.2083C6.09082 31.4404 6.18301 31.663 6.3471 31.8271C6.5112 31.9911 6.73376 32.0833 6.96582 32.0833H20.6742" stroke="#801414" stroke-width="3" stroke-linecap="round" stroke-linejoin="round"/>
<path d="M23.5908 2.91667V7.875C23.5908 8.10707 23.683 8.32963 23.8471 8.49372C24.0112 8.65781 24.2338 8.75 24.4658 8.75H29.4242M23.5908 27.7083H32.3408M32.3408 27.7083L27.9658 23.3333M32.3408 27.7083L27.9658 32.0833" stroke="#801414" stroke-width="3" stroke-linecap="round" stroke-linejoin="round"/>
</svg>